<svg width="20" height="20" viewBox="0 0 20 20" fill="none" xmlns="http://www.w3.org/2000/svg">
<path fill-rule="evenodd" clip-rule="evenodd" d="M5.625 5.625C5.28 5.625 5 5.345 5 5H6.25C6.25 5.345 5.97 5.625 5.625 5.625ZM6.25 3.75V3.125C6.25 2.78 5.97 2.5 5.625 2.5C5.28 2.5 5 2.78 5 3.125V3.75H4.06562C3.2025 3.75 2.5 4.4525 2.5 5.31562V6.875V15.935C2.5 16.7981 3.2025 17.5 4.065 17.5H15.935C16.7981 17.5 17.5 16.7981 17.5 15.935V6.875V5.31562C17.5 4.4525 16.7975 3.75 15.9344 3.75H15V3.125C15 2.78 14.7206 2.5 14.375 2.5C14.0294 2.5 13.75 2.78 13.75 3.125V3.75H6.25ZM13.75 5H6.25V3.75H5V5H4.06562C3.89188 5 3.75 5.14188 3.75 5.31562V6.25H3.125C2.78 6.25 2.5 6.53 2.5 6.875C2.5 7.22 2.78 7.5 3.125 7.5H3.75V15.935C3.75 16.1088 3.89125 16.25 4.065 16.25H15.935C16.1088 16.25 16.25 16.1088 16.25 15.935V7.5H16.875C17.2206 7.5 17.5 7.22 17.5 6.875C17.5 6.53 17.2206 6.25 16.875 6.25H16.25V5.31562C16.25 5.14188 16.1081 5 15.9344 5H15V3.75H13.75V5ZM13.75 5C13.75 5.345 14.0294 5.625 14.375 5.625C14.7206 5.625 15 5.345 15 5H13.75ZM16.25 6.25V7.5H3.75V6.25H16.25Z" fill="#717171"/>
<path fill-rule="evenodd" clip-rule="evenodd" d="M6.25 15C6.59518 15 6.875 14.7202 6.875 14.375C6.875 14.0298 6.59518 13.75 6.25 13.75C5.90482 13.75 5.625 14.0298 5.625 14.375C5.625 14.7202 5.90482 15 6.25 15Z" fill="#717171"/>
<path fill-rule="evenodd" clip-rule="evenodd" d="M6.25 12.5C6.59518 12.5 6.875 12.2202 6.875 11.875C6.875 11.5298 6.59518 11.25 6.25 11.25C5.90482 11.25 5.625 11.5298 5.625 11.875C5.625 12.2202 5.90482 12.5 6.25 12.5Z" fill="#717171"/>
<path fill-rule="evenodd" clip-rule="evenodd" d="M8.125 15C8.47018 15 8.75 14.7202 8.75 14.375C8.75 14.0298 8.47018 13.75 8.125 13.75C7.77982 13.75 7.5 14.0298 7.5 14.375C7.5 14.7202 7.77982 15 8.125 15Z" fill="#717171"/>
<path fill-rule="evenodd" clip-rule="evenodd" d="M8.125 12.5C8.47018 12.5 8.75 12.2202 8.75 11.875C8.75 11.5298 8.47018 11.25 8.125 11.25C7.77982 11.25 7.5 11.5298 7.5 11.875C7.5 12.2202 7.77982 12.5 8.125 12.5Z" fill="#717171"/>
<path fill-rule="evenodd" clip-rule="evenodd" d="M8.125 10C8.47018 10 8.75 9.72018 8.75 9.375C8.75 9.02982 8.47018 8.75 8.125 8.75C7.77982 8.75 7.5 9.02982 7.5 9.375C7.5 9.72018 7.77982 10 8.125 10Z" fill="#717171"/>
<path fill-rule="evenodd" clip-rule="evenodd" d="M11.875 15C12.2202 15 12.5 14.7202 12.5 14.375C12.5 14.0298 12.2202 13.75 11.875 13.75C11.5298 13.75 11.25 14.0298 11.25 14.375C11.25 14.7202 11.5298 15 11.875 15Z" fill="#717171"/>
<path fill-rule="evenodd" clip-rule="evenodd" d="M11.875 12.5C12.2202 12.5 12.5 12.2202 12.5 11.875C12.5 11.5298 12.2202 11.25 11.875 11.25C11.5298 11.25 11.25 11.5298 11.25 11.875C11.25 12.2202 11.5298 12.5 11.875 12.5Z" fill="#717171"/>
<path fill-rule="evenodd" clip-rule="evenodd" d="M11.875 10C12.2202 10 12.5 9.72018 12.5 9.375C12.5 9.02982 12.2202 8.75 11.875 8.75C11.5298 8.75 11.25 9.02982 11.25 9.375C11.25 9.72018 11.5298 10 11.875 10Z" fill="#717171"/>
<path fill-rule="evenodd" clip-rule="evenodd" d="M13.75 12.5C14.0952 12.5 14.375 12.2202 14.375 11.875C14.375 11.5298 14.0952 11.25 13.75 11.25C13.4048 11.25 13.125 11.5298 13.125 11.875C13.125 12.2202 13.4048 12.5 13.75 12.5Z" fill="#717171"/>
<path fill-rule="evenodd" clip-rule="evenodd" d="M13.75 10C14.0952 10 14.375 9.72018 14.375 9.375C14.375 9.02982 14.0952 8.75 13.75 8.75C13.4048 8.75 13.125 9.02982 13.125 9.375C13.125 9.72018 13.4048 10 13.75 10Z" fill="#717171"/>
<path fill-rule="evenodd" clip-rule="evenodd" d="M10 15C10.3452 15 10.625 14.7202 10.625 14.375C10.625 14.0298 10.3452 13.75 10 13.75C9.65482 13.75 9.375 14.0298 9.375 14.375C9.375 14.7202 9.65482 15 10 15Z" fill="#717171"/>
<path fill-rule="evenodd" clip-rule="evenodd" d="M10 12.5C10.3452 12.5 10.625 12.2202 10.625 11.875C10.625 11.5298 10.3452 11.25 10 11.25C9.65482 11.25 9.375 11.5298 9.375 11.875C9.375 12.2202 9.65482 12.5 10 12.5Z" fill="#717171"/>
<path fill-rule="evenodd" clip-rule="evenodd" d="M10 10C10.3452 10 10.625 9.72018 10.625 9.375C10.625 9.02982 10.3452 8.75 10 8.75C9.65482 8.75 9.375 9.02982 9.375 9.375C9.375 9.72018 9.65482 10 10 10Z" fill="#717171"/>
</svg>
