<svg width="22" height="22" viewBox="0 0 22 22" fill="none" xmlns="http://www.w3.org/2000/svg">
<path fill-rule="evenodd" clip-rule="evenodd" d="M9.69095 18.1354L11.2059 18.1354C11.2961 18.1354 11.3953 18.0903 11.4133 18.0181L15.2188 12.2828C15.2639 12.1837 15.3361 12.1656 15.4262 12.1656L19.7548 12.1656C20.4942 12.1656 21.0894 11.5704 21.0894 10.831C21.0894 10.0915 20.4942 9.49636 19.7548 9.49636L15.282 9.49636C15.1918 9.49636 15.1196 9.47833 15.0745 9.37913L11.1338 3.63482C11.0616 3.56268 11.0166 3.51759 10.9264 3.51759L9.33926 3.53563C9.1589 3.53563 9.01462 3.71598 9.08676 3.8783L11.1338 9.15369C11.2059 9.31601 11.0616 9.49636 10.8813 9.49636H6.13795C6.04777 9.49636 5.94858 9.45127 5.93054 9.37913L4.68609 7.4854C4.641 7.38621 4.56886 7.36817 4.47869 7.36817L3.55887 7.36817C3.37852 7.36817 3.25227 7.53049 3.30638 7.71085L4.11798 10.0374C4.09092 10.0645 4.11798 10.0915 4.11798 10.1276L4.11797 11.4622C4.11797 11.5163 4.11797 11.5163 4.09994 11.5344L3.31539 13.9241C3.24325 14.0864 3.38754 14.2668 3.56789 14.2668L4.34342 14.2668C4.4336 14.2668 4.53279 14.2217 4.55083 14.1495L5.81331 12.2378C5.8584 12.1386 5.93054 12.1205 6.02072 12.1205L11.0526 12.1205C11.233 12.1205 11.3592 12.2828 11.3051 12.4632L9.4655 17.7656C9.38434 17.973 9.51059 18.1354 9.69095 18.1354Z" fill="white"/>
</svg>
