<svg width="50" height="36" viewBox="0 0 50 36" fill="none" xmlns="http://www.w3.org/2000/svg">
<path d="M49.3397 1.44777C48.6879 0.559191 47.6603 0.0548304 46.5909 0.0549317C46.3144 0.0549317 46.035 0.0886642 45.7587 0.158256L2.57721 11.0281C1.2409 11.3643 0.238658 12.4721 0.0367719 13.8351C-0.164709 15.1981 0.473871 16.5485 1.65541 17.2573L10.7867 22.7361V34.7543C10.7867 35.2092 11.0459 35.6243 11.4544 35.8241C11.8631 36.0239 12.3499 35.9734 12.7088 35.6941L21.2732 29.0282L28.3088 33.2495C28.8578 33.5789 29.4624 33.7358 30.0597 33.7358C31.2051 33.7358 32.3228 33.1585 32.9663 32.1127L49.4942 5.25079C50.2211 4.06966 50.16 2.566 49.3397 1.44777ZM29.8554 29.4768L19.1495 23.053L30.0109 13.6936C30.1631 13.5626 30.1987 13.3411 30.0954 13.169C29.9923 12.9969 29.7802 12.924 29.593 12.9964L13.049 19.3929L5.01352 14.5714L45.2604 4.44031L29.8554 29.4768Z" fill="white"/>
</svg>
